<mxfile host="Electron" modified="2024-06-18T10:08:53.045Z" agent="Mozilla/5.0 (Windows NT 10.0; Win64; x64) AppleWebKit/537.36 (KHTML, like Gecko) draw.io/22.0.2 Chrome/114.0.5735.289 Electron/25.8.4 Safari/537.36" etag="Sj-9NQqS22eXMnAuULS3" version="22.0.2" type="device">
  <diagram name="第 1 页" id="kYuHIrQTvLd25YGPLH1h">
    <mxGraphModel dx="91" dy="593" grid="1" gridSize="10" guides="1" tooltips="1" connect="1" arrows="1" fold="1" page="1" pageScale="1" pageWidth="827" pageHeight="1169" math="0" shadow="0">
      <root>
        <mxCell id="0" />
        <mxCell id="1" parent="0" />
        <mxCell id="-y3yfsBdpUwIm31mxRyQ-242" value="" style="shape=partialRectangle;whiteSpace=wrap;html=1;left=0;right=0;fillColor=none;" parent="1" vertex="1">
          <mxGeometry x="880" y="320" width="490" height="60" as="geometry" />
        </mxCell>
        <mxCell id="-y3yfsBdpUwIm31mxRyQ-165" value="MySQL" style="shape=datastore;whiteSpace=wrap;html=1;" parent="1" vertex="1">
          <mxGeometry x="1030" y="330" width="80" height="40" as="geometry" />
        </mxCell>
        <mxCell id="-y3yfsBdpUwIm31mxRyQ-166" value="&lt;font style=&quot;font-size: 12px;&quot;&gt;AliyunOSS&lt;/font&gt;" style="shape=datastore;whiteSpace=wrap;html=1;" parent="1" vertex="1">
          <mxGeometry x="1269" y="330" width="80" height="40" as="geometry" />
        </mxCell>
        <mxCell id="-y3yfsBdpUwIm31mxRyQ-167" value="&lt;font style=&quot;font-size: 12px;&quot;&gt;本地文件系统&lt;/font&gt;" style="shape=datastore;whiteSpace=wrap;html=1;" parent="1" vertex="1">
          <mxGeometry x="1149" y="330" width="80" height="40" as="geometry" />
        </mxCell>
        <mxCell id="-y3yfsBdpUwIm31mxRyQ-218" value="文件存储服务模块" style="rounded=0;whiteSpace=wrap;html=1;" parent="1" vertex="1">
          <mxGeometry x="1229" y="290" width="120" height="20" as="geometry" />
        </mxCell>
        <mxCell id="-y3yfsBdpUwIm31mxRyQ-219" value="mybatis-plus" style="rounded=0;whiteSpace=wrap;html=1;" parent="1" vertex="1">
          <mxGeometry x="1030" y="290" width="79" height="20" as="geometry" />
        </mxCell>
        <mxCell id="-y3yfsBdpUwIm31mxRyQ-222" value="Sa-Token" style="rounded=0;whiteSpace=wrap;html=1;" parent="1" vertex="1">
          <mxGeometry x="1030" y="130" width="320" height="20" as="geometry" />
        </mxCell>
        <mxCell id="-y3yfsBdpUwIm31mxRyQ-223" value="Caffeine" style="rounded=0;whiteSpace=wrap;html=1;" parent="1" vertex="1">
          <mxGeometry x="1120" y="290" width="100" height="20" as="geometry" />
        </mxCell>
        <mxCell id="-y3yfsBdpUwIm31mxRyQ-211" value="用&lt;br&gt;户&lt;br&gt;账&lt;br&gt;户&lt;br&gt;管&lt;br&gt;理" style="rounded=0;whiteSpace=wrap;html=1;" parent="1" vertex="1">
          <mxGeometry x="1059.5" y="170" width="20" height="100" as="geometry" />
        </mxCell>
        <mxCell id="-y3yfsBdpUwIm31mxRyQ-212" value="院&lt;br&gt;系&lt;br&gt;管&lt;br&gt;理" style="rounded=0;whiteSpace=wrap;html=1;" parent="1" vertex="1">
          <mxGeometry x="1030" y="170" width="20" height="100" as="geometry" />
        </mxCell>
        <mxCell id="-y3yfsBdpUwIm31mxRyQ-236" value="API接口" style="rounded=0;whiteSpace=wrap;html=1;" parent="1" vertex="1">
          <mxGeometry x="1030" y="90" width="160" height="20" as="geometry" />
        </mxCell>
        <mxCell id="-y3yfsBdpUwIm31mxRyQ-237" value="swagger3" style="rounded=0;whiteSpace=wrap;html=1;" parent="1" vertex="1">
          <mxGeometry x="1229" y="90" width="121" height="20" as="geometry" />
        </mxCell>
        <mxCell id="-y3yfsBdpUwIm31mxRyQ-251" value="" style="group" parent="1" vertex="1" connectable="0">
          <mxGeometry x="880" y="80" width="490" height="40" as="geometry" />
        </mxCell>
        <mxCell id="-y3yfsBdpUwIm31mxRyQ-238" value="" style="shape=partialRectangle;whiteSpace=wrap;html=1;left=0;right=0;fillColor=none;" parent="-y3yfsBdpUwIm31mxRyQ-251" vertex="1">
          <mxGeometry width="490" height="40" as="geometry" />
        </mxCell>
        <mxCell id="-y3yfsBdpUwIm31mxRyQ-243" value="向前端提供的接口" style="text;html=1;strokeColor=none;fillColor=none;align=center;verticalAlign=middle;whiteSpace=wrap;rounded=0;" parent="-y3yfsBdpUwIm31mxRyQ-251" vertex="1">
          <mxGeometry width="113" height="40" as="geometry" />
        </mxCell>
        <mxCell id="-y3yfsBdpUwIm31mxRyQ-254" value="" style="group" parent="1" vertex="1" connectable="0">
          <mxGeometry x="880" y="120" width="490" height="40" as="geometry" />
        </mxCell>
        <mxCell id="-y3yfsBdpUwIm31mxRyQ-239" value="" style="shape=partialRectangle;whiteSpace=wrap;html=1;left=0;right=0;fillColor=none;" parent="-y3yfsBdpUwIm31mxRyQ-254" vertex="1">
          <mxGeometry width="490" height="40" as="geometry" />
        </mxCell>
        <mxCell id="-y3yfsBdpUwIm31mxRyQ-244" value="控制器层" style="text;html=1;strokeColor=none;fillColor=none;align=center;verticalAlign=middle;whiteSpace=wrap;rounded=0;" parent="-y3yfsBdpUwIm31mxRyQ-254" vertex="1">
          <mxGeometry width="113" height="40" as="geometry" />
        </mxCell>
        <mxCell id="-y3yfsBdpUwIm31mxRyQ-256" value="" style="group" parent="1" vertex="1" connectable="0">
          <mxGeometry x="880" y="280" width="490" height="40" as="geometry" />
        </mxCell>
        <mxCell id="-y3yfsBdpUwIm31mxRyQ-241" value="" style="shape=partialRectangle;whiteSpace=wrap;html=1;left=0;right=0;fillColor=none;" parent="-y3yfsBdpUwIm31mxRyQ-256" vertex="1">
          <mxGeometry width="490" height="40" as="geometry" />
        </mxCell>
        <mxCell id="-y3yfsBdpUwIm31mxRyQ-247" value="数据访问层" style="text;html=1;strokeColor=none;fillColor=none;align=center;verticalAlign=middle;whiteSpace=wrap;rounded=0;" parent="-y3yfsBdpUwIm31mxRyQ-256" vertex="1">
          <mxGeometry width="110" height="40" as="geometry" />
        </mxCell>
        <mxCell id="-y3yfsBdpUwIm31mxRyQ-259" value="详&lt;br&gt;细&lt;br&gt;身&lt;br&gt;份&lt;br&gt;鉴&lt;br&gt;权" style="rounded=0;whiteSpace=wrap;html=1;" parent="1" vertex="1">
          <mxGeometry x="1090" y="170" width="20" height="100" as="geometry" />
        </mxCell>
        <mxCell id="-y3yfsBdpUwIm31mxRyQ-262" value="邮&lt;br&gt;件&lt;br&gt;发&lt;br&gt;送&lt;br&gt;服&lt;br&gt;务" style="rounded=0;whiteSpace=wrap;html=1;" parent="1" vertex="1">
          <mxGeometry x="1330" y="170" width="20" height="100" as="geometry" />
        </mxCell>
        <mxCell id="-y3yfsBdpUwIm31mxRyQ-266" value="业务层" style="text;html=1;strokeColor=none;fillColor=none;align=center;verticalAlign=middle;whiteSpace=wrap;rounded=0;" parent="1" vertex="1">
          <mxGeometry x="880" y="160" width="120" height="120" as="geometry" />
        </mxCell>
        <mxCell id="-y3yfsBdpUwIm31mxRyQ-267" value="" style="group" parent="1" vertex="1" connectable="0">
          <mxGeometry x="1130" y="170" width="190.8675799086759" height="100" as="geometry" />
        </mxCell>
        <mxCell id="-y3yfsBdpUwIm31mxRyQ-200" value="社&lt;br&gt;团&lt;br&gt;业&lt;br&gt;务&lt;br&gt;模&lt;br&gt;块" style="rounded=0;whiteSpace=wrap;html=1;labelPosition=left;verticalLabelPosition=middle;align=right;verticalAlign=middle;horizontal=1;container=0;" parent="-y3yfsBdpUwIm31mxRyQ-267" vertex="1">
          <mxGeometry width="190.8675799086758" height="100" as="geometry" />
        </mxCell>
        <mxCell id="-y3yfsBdpUwIm31mxRyQ-194" value="公&lt;br&gt;告&lt;br&gt;管&lt;br&gt;理" style="rounded=0;html=1;verticalAlign=middle;horizontal=1;whiteSpace=wrap;container=0;" parent="-y3yfsBdpUwIm31mxRyQ-267" vertex="1">
          <mxGeometry x="11.050228310502234" y="10" width="20.091324200913242" height="80" as="geometry" />
        </mxCell>
        <mxCell id="-y3yfsBdpUwIm31mxRyQ-195" value="考&lt;br&gt;勤&lt;br&gt;签&lt;br&gt;到" style="rounded=0;html=1;verticalAlign=middle;horizontal=1;whiteSpace=wrap;container=0;" parent="-y3yfsBdpUwIm31mxRyQ-267" vertex="1">
          <mxGeometry x="41.18721461187215" y="10" width="19.08675799086758" height="80" as="geometry" />
        </mxCell>
        <mxCell id="-y3yfsBdpUwIm31mxRyQ-196" value="值&lt;br&gt;日&lt;br&gt;安&lt;br&gt;排" style="rounded=0;html=1;verticalAlign=middle;horizontal=1;whiteSpace=wrap;container=0;" parent="-y3yfsBdpUwIm31mxRyQ-267" vertex="1">
          <mxGeometry x="72.32876712328789" y="10" width="19.08675799086758" height="80" as="geometry" />
        </mxCell>
        <mxCell id="-y3yfsBdpUwIm31mxRyQ-197" value="社&lt;br&gt;团&lt;br&gt;管&lt;br&gt;理" style="rounded=0;html=1;verticalAlign=middle;horizontal=1;whiteSpace=wrap;container=0;" parent="-y3yfsBdpUwIm31mxRyQ-267" vertex="1">
          <mxGeometry x="100.45662100456639" y="10" width="19.08675799086758" height="80" as="geometry" />
        </mxCell>
        <mxCell id="-y3yfsBdpUwIm31mxRyQ-198" value="人&lt;br&gt;员&lt;br&gt;管&lt;br&gt;理" style="rounded=0;html=1;verticalAlign=middle;horizontal=1;whiteSpace=wrap;container=0;" parent="-y3yfsBdpUwIm31mxRyQ-267" vertex="1">
          <mxGeometry x="130.59360730593608" y="10" width="19.08675799086758" height="80" as="geometry" />
        </mxCell>
        <mxCell id="-y3yfsBdpUwIm31mxRyQ-199" value="座&lt;br&gt;位&lt;br&gt;安&lt;br&gt;排" style="rounded=0;html=1;verticalAlign=middle;horizontal=1;whiteSpace=wrap;container=0;" parent="-y3yfsBdpUwIm31mxRyQ-267" vertex="1">
          <mxGeometry x="160.73059360730622" y="10" width="19.08675799086758" height="80" as="geometry" />
        </mxCell>
        <mxCell id="-y3yfsBdpUwIm31mxRyQ-248" value="数据存储层" style="text;html=1;strokeColor=none;fillColor=none;align=center;verticalAlign=middle;whiteSpace=wrap;rounded=0;" parent="1" vertex="1">
          <mxGeometry x="880" y="320" width="110" height="60" as="geometry" />
        </mxCell>
      </root>
    </mxGraphModel>
  </diagram>
</mxfile>
